<svg width="147" height="147" viewBox="0 0 147 147" fill="none" xmlns="http://www.w3.org/2000/svg">
<g filter="url(#filter0_d_0_1)">
<rect x="146" y="69.1249" width="102" height="102" rx="51" transform="rotate(135 146 69.1249)" fill="#FF7A50" fill-opacity="0.83" shape-rendering="crispEdges"/>
</g>
<g clip-path="url(#clip0_0_1)">
<path d="M94.6055 44.2225H53.3945C50.9714 44.2225 49 46.1939 49 48.6171V89.6327C49 92.0558 50.9714 94.0272 53.3945 94.0272H94.6055C97.0286 94.0272 99 92.0558 99 89.6327V48.6171C99 46.1939 97.0286 44.2225 94.6055 44.2225ZM53.3945 47.1522H94.6055C95.4132 47.1522 96.0703 47.8094 96.0703 48.6171V55.9413H51.9297V48.6171C51.9297 47.8094 52.5868 47.1522 53.3945 47.1522ZM94.6055 91.0975H53.3945C52.5868 91.0975 51.9297 90.4404 51.9297 89.6327V58.871H96.0703V89.6327C96.0703 90.4404 95.4132 91.0975 94.6055 91.0975Z" fill="white"/>
<path d="M78.9716 63.3839C78.2281 63.0653 77.3669 63.4097 77.0482 64.1533L68.2591 84.6611C67.9404 85.4046 68.2849 86.2659 69.0285 86.5845C69.7723 86.9033 70.6334 86.5585 70.9519 85.8152L79.741 65.3074C80.0597 64.5637 79.7152 63.7026 78.9716 63.3839Z" fill="white"/>
<path d="M66.3547 68.2097C65.8492 67.578 64.9272 67.4756 64.2958 67.981L56.9716 73.8403C56.2392 74.426 56.2388 75.5419 56.9716 76.128L64.2958 81.9874C64.9275 82.4929 65.8495 82.3903 66.3547 81.7587C66.86 81.127 66.7577 80.2051 66.1259 79.6998L60.2315 74.9842L66.1259 70.2687C66.7577 69.7633 66.86 68.8415 66.3547 68.2097Z" fill="white"/>
<path d="M91.0286 73.8404L83.7043 67.981C83.0726 67.4756 82.1507 67.578 81.6455 68.2097C81.1401 68.8415 81.2424 69.7633 81.8743 70.2686L87.7686 74.9842L81.8743 79.6998C81.2424 80.2051 81.1401 81.1269 81.6455 81.7587C82.1515 82.3911 83.0735 82.4923 83.7043 81.9874L91.0286 76.128C91.7609 75.5423 91.7614 74.4265 91.0286 73.8404Z" fill="white"/>
<path d="M56.4219 53.0116C57.2309 53.0116 57.8867 52.3558 57.8867 51.5468C57.8867 50.7377 57.2309 50.0819 56.4219 50.0819C55.6129 50.0819 54.957 50.7377 54.957 51.5468C54.957 52.3558 55.6129 53.0116 56.4219 53.0116Z" fill="white"/>
<path d="M62.2812 53.0116C63.0903 53.0116 63.7461 52.3558 63.7461 51.5468C63.7461 50.7377 63.0903 50.0819 62.2812 50.0819C61.4722 50.0819 60.8164 50.7377 60.8164 51.5468C60.8164 52.3558 61.4722 53.0116 62.2812 53.0116Z" fill="white"/>
<path d="M68.1406 53.0116C68.9496 53.0116 69.6055 52.3558 69.6055 51.5468C69.6055 50.7377 68.9496 50.0819 68.1406 50.0819C67.3316 50.0819 66.6758 50.7377 66.6758 51.5468C66.6758 52.3558 67.3316 53.0116 68.1406 53.0116Z" fill="white"/>
<path d="M82.7891 53.0116H91.5781C92.3871 53.0116 93.043 52.3557 93.043 51.5468C93.043 50.7378 92.3871 50.0819 91.5781 50.0819H82.7891C81.9801 50.0819 81.3242 50.7378 81.3242 51.5468C81.3242 52.3557 81.9801 53.0116 82.7891 53.0116Z" fill="white"/>
</g>
<defs>
<filter id="filter0_d_0_1" x="0.875111" y="0.124878" width="146" height="146" filterUnits="userSpaceOnUse" color-interpolation-filters="sRGB">
<feFlood flood-opacity="0" result="BackgroundImageFix"/>
<feColorMatrix in="SourceAlpha" type="matrix" values="0 0 0 0 0 0 0 0 0 0 0 0 0 0 0 0 0 0 127 0" result="hardAlpha"/>
<feOffset dy="4"/>
<feGaussianBlur stdDeviation="11"/>
<feComposite in2="hardAlpha" operator="out"/>
<feColorMatrix type="matrix" values="0 0 0 0 0.370833 0 0 0 0 0.370833 0 0 0 0 0.370833 0 0 0 0.05 0"/>
<feBlend mode="normal" in2="BackgroundImageFix" result="effect1_dropShadow_0_1"/>
<feBlend mode="normal" in="SourceGraphic" in2="effect1_dropShadow_0_1" result="shape"/>
</filter>
<clipPath id="clip0_0_1">
<rect width="50" height="50" fill="white" transform="translate(49 44.1249)"/>
</clipPath>
</defs>
</svg>
